<?xml version="1.0" standalone="no"?>
<!DOCTYPE svg PUBLIC "-//W3C//DTD SVG 20010904//EN"
 "http://www.w3.org/TR/2001/REC-SVG-20010904/DTD/svg10.dtd">
<svg version="1.0" xmlns="http://www.w3.org/2000/svg"
 width="512.000000pt" height="512.000000pt" viewBox="0 0 512.000000 512.000000"
 preserveAspectRatio="xMidYMid meet">

<g transform="translate(0.000000,512.000000) scale(0.100000,-0.100000)"
fill="#000000" stroke="none">
<path d="M3171 5103 c-12 -10 -80 -158 -159 -343 l-138 -325 -199 0 -200 0 -3
157 c-2 156 -3 157 -29 177 -22 18 -40 21 -135 21 -122 0 -163 -13 -174 -55
-17 -68 27 -105 126 -105 l60 0 0 -94 0 -94 -71 -4 c-114 -6 -109 9 -109 -350
l0 -299 -84 74 c-46 41 -125 108 -175 148 l-91 73 0 272 0 272 76 4 c65 3 79
7 95 27 24 30 24 72 0 102 -18 23 -25 24 -150 24 -112 0 -133 -3 -148 -18 -16
-16 -19 -46 -23 -297 l-5 -280 -40 27 c-22 15 -83 53 -135 85 -103 63 -147 73
-177 39 -27 -32 -363 -630 -363 -647 0 -27 19 -52 57 -75 21 -12 80 -49 130
-82 l93 -59 -21 -40 c-82 -160 27 -355 213 -382 l47 -7 -77 -98 c-279 -350
-474 -723 -561 -1071 -76 -310 -86 -640 -30 -1030 l21 -144 -28 -24 c-111 -90
-135 -116 -165 -178 -29 -58 -33 -77 -33 -148 -1 -70 3 -89 30 -146 72 -151
220 -230 380 -203 99 17 165 62 242 164 34 46 73 97 85 113 l23 30 170 -41
c283 -69 488 -96 843 -114 358 -17 902 17 961 60 36 26 35 86 -1 113 -26 20
-30 20 -168 4 -554 -64 -1174 -30 -1629 89 -148 39 -177 42 -230 20 -49 -21
-73 -45 -137 -135 -64 -91 -98 -124 -147 -144 -77 -33 -166 -10 -225 57 -44
51 -58 107 -43 175 12 56 37 87 137 169 35 29 57 57 69 89 17 44 17 51 -5 202
-116 830 57 1397 641 2103 l73 88 312 1 311 0 -15 -57 c-21 -80 -57 -148 -111
-205 -37 -40 -76 -64 -210 -129 -150 -74 -170 -86 -241 -157 -128 -127 -184
-267 -128 -320 48 -45 107 -20 127 54 31 111 152 222 321 294 122 52 176 89
248 166 63 67 120 171 142 257 6 26 15 47 19 47 13 0 103 -74 137 -114 47 -53
74 -110 84 -180 6 -43 14 -66 30 -78 29 -24 74 -23 100 3 19 19 21 30 17 95
-6 93 -47 181 -125 264 l-55 60 443 -1 444 0 76 -92 c392 -477 589 -880 654
-1341 29 -205 21 -517 -22 -786 -25 -160 -10 -203 102 -291 81 -63 109 -113
109 -189 -1 -61 -18 -102 -61 -142 -58 -56 -140 -72 -211 -42 -49 20 -83 53
-147 144 -64 90 -88 114 -137 135 -49 20 -87 19 -172 -4 -39 -11 -90 -25 -113
-31 -77 -20 -103 -72 -62 -124 26 -34 53 -33 187 1 l105 28 23 -30 c13 -17 52
-68 86 -114 77 -102 143 -147 242 -164 191 -32 365 89 407 285 15 69 -2 167
-41 235 -26 46 -50 70 -154 155 l-28 24 21 144 c94 655 4 1155 -305 1688 -71
122 -212 324 -305 439 l-59 72 47 7 c71 10 128 41 173 92 107 121 83 299 -53
397 l-28 20 79 95 c43 52 122 141 175 197 73 77 97 109 97 129 0 20 -22 50
-92 120 -50 52 -100 96 -110 100 -44 14 -98 -32 -98 -82 0 -9 25 -42 56 -74
l56 -59 -28 -35 c-16 -18 -64 -74 -108 -122 -43 -49 -105 -124 -138 -166 l-59
-78 -315 0 -315 0 17 32 c81 157 282 421 522 688 l50 55 51 -48 c58 -54 94
-61 129 -24 26 27 29 79 7 97 -8 7 -15 18 -15 26 0 7 32 87 70 178 39 91 70
176 70 189 0 13 -10 33 -22 44 -26 24 -657 293 -686 293 -11 0 -29 -8 -41 -17z
m341 -269 c122 -52 223 -96 225 -98 2 -2 -14 -45 -36 -97 l-39 -94 -43 4 c-43
3 -43 3 -142 -100 -135 -141 -300 -339 -405 -486 l-87 -123 -3 225 -2 225 137
325 c114 269 141 324 155 319 9 -3 117 -48 240 -100z m-692 -899 l0 -345 -242
0 c-234 0 -242 1 -265 22 l-23 21 0 324 0 323 265 0 265 0 0 -345z m-1332 169
c202 -133 447 -329 577 -463 l49 -51 -374 -1 c-206 0 -384 -4 -395 -8 -14 -6
-45 10 -130 66 -60 41 -109 78 -108 81 4 17 255 452 260 452 3 0 57 -34 121
-76z m2273 -687 c48 -32 67 -89 46 -139 -8 -20 -28 -45 -43 -55 -27 -17 -82
-18 -1205 -18 l-1178 0 -28 21 c-15 11 -35 39 -43 62 -13 37 -12 45 3 77 9 19
31 44 49 55 32 20 53 20 1199 20 l1166 0 34 -23z"/>
<path d="M2500 2240 c-15 -15 -20 -33 -20 -74 0 -54 0 -55 -37 -67 -129 -42
-213 -162 -213 -302 0 -115 58 -196 190 -266 l60 -32 0 -226 0 -226 -36 6
c-20 3 -62 20 -95 37 -68 35 -101 38 -129 10 -32 -32 -27 -84 13 -114 50 -38
136 -74 194 -82 l53 -6 0 -58 c0 -51 3 -61 26 -79 35 -28 69 -26 99 4 21 20
25 34 25 85 0 50 3 60 18 60 34 0 118 48 164 94 69 69 101 142 106 247 4 78 2
92 -23 148 -41 90 -118 155 -227 190 l-38 13 0 183 0 183 48 -12 c26 -7 61
-20 79 -29 45 -24 80 -21 108 8 69 68 -14 141 -207 180 -25 5 -28 9 -28 49 0
59 -29 96 -76 96 -21 0 -42 -8 -54 -20z m-20 -431 l0 -140 -31 18 c-49 28 -69
60 -69 110 0 65 53 153 92 153 5 0 8 -63 8 -141z m200 -389 c21 -11 49 -34 61
-51 27 -39 36 -121 19 -174 -14 -44 -62 -100 -101 -121 l-29 -15 0 191 c0 104
2 190 5 190 3 0 23 -9 45 -20z"/>
</g>
</svg>
