<?xml version="1.0" standalone="no"?><svg xmlns="http://www.w3.org/2000/svg" viewBox="0 0 1440 320"><path fill="#a2d9ff" fill-opacity="10" d="M0,64L30,101.3C60,139,120,213,180,245.3C240,277,300,267,360,234.7C420,203,480,149,540,154.7C600,160,660,224,720,256C780,288,840,288,900,256C960,224,1020,160,1080,117.3C1140,75,1200,53,1260,58.7C1320,64,1380,96,1410,112L1440,128L1440,320L1410,320C1380,320,1320,320,1260,320C1200,320,1140,320,1080,320C1020,320,960,320,900,320C840,320,780,320,720,320C660,320,600,320,540,320C480,320,420,320,360,320C300,320,240,320,180,320C120,320,60,320,30,320L0,320Z"></path></svg>